<?xml version="1.0" encoding="utf-8"?>
<!DOCTYPE svg PUBLIC "-//W3C//DTD SVG 1.1//EN" "http://www.w3.org/Graphics/SVG/1.1/DTD/svg11.dtd">
<svg version="1.1"
	 id="Layer_1" xmlns:dc="http://purl.org/dc/elements/1.1/" xmlns:cc="http://creativecommons.org/ns#" xmlns:rdf="http://www.w3.org/1999/02/22-rdf-syntax-ns#" xmlns:svg="http://www.w3.org/2000/svg"
	 xmlns="http://www.w3.org/2000/svg" xmlns:xlink="http://www.w3.org/1999/xlink" x="0px" y="0px" width="59.119px" height="18px"
	 viewBox="0 0 59.119 18" enable-background="new 0 0 59.119 18" xml:space="preserve">
<path opacity="0.25" d="M26.46,6.25h-1.59v5.53h1.59c1.46,0,2.59-1.31,2.59-2.78S28.05,6.25,26.46,6.25z M26.37,10.28V7.72
	c0.83,0,1.18,0.68,1.19,1.28C27.57,9.94,26.94,10.28,26.37,10.28z"/>
<path opacity="0.25" d="M35.34,6.25h-1.5v5.53h1.5c1.58,0,2.62-1.31,2.62-2.78S36.81,6.25,35.34,6.25z M35.09,10.28V7.72
	c0.72,0,1.37,0.6,1.37,1.28C36.46,9.77,35.95,10.28,35.09,10.28z"/>
<path opacity="0.25" d="M17.56,6.22c-1.4,0-2.44,1.21-2.44,2.78s1.04,2.78,2.44,2.78H20V9C20,7.41,18.96,6.22,17.56,6.22z
	 M18.5,10.28h-0.94c-0.52,0-0.94-0.38-0.94-1.28s0.42-1.28,0.94-1.28c0.53,0,0.94,0.35,0.94,1.28V10.28z"/>
<path opacity="0.25" d="M58.9,12.5l-2.59-3.62l2.4-3.38c0.64-0.89-0.12-2.38-1.21-2.38h-2.16c-0.47,0-0.94,0.24-1.22,0.63L53.4,4.78
	l-0.75-1.03c-0.27-0.39-0.74-0.63-1.22-0.63h-2.16c-0.49,0-0.97,0.25-1.25,0.66c-0.86-0.51-1.84-0.81-2.91-0.81
	c-2.03,0-3.83,1.08-4.88,2.69c-1.04-1.63-2.87-2.69-4.95-2.69V1.5c0-0.39-0.16-0.79-0.44-1.06C34.56,0.16,34.17,0,33.78,0h-1.75
	c-0.71,0-1.5,0.83-1.5,1.5v3.16c-1.06-1.06-2.48-1.69-4.06-1.69h-3.34c-0.77,0.02-1.47,0.72-1.47,1.5v0.31
	c-1.02-1.12-2.46-1.81-4.09-1.81s-3.07,0.7-4.09,1.81L13.47,1.5c0-0.79-0.71-1.5-1.5-1.5h-1.38C9.64,0,8.37,0.37,7.75,1.44l-1,1.69
	l-1-1.69C5.12,0.37,3.86,0,2.9,0H1.49C1.45,0,1.41,0,1.37,0C0.63,0.06-0.01,0.75,0,1.5v11.88c0.02,0.77,0.72,1.47,1.5,1.47h1.75
	c0.78,0,1.48-0.69,1.5-1.47V9.1l0.72,1.19c0.53,0.87,2.03,0.87,2.56,0L8.75,9.1v4.28c0.02,0.76,0.7,1.45,1.47,1.47h1.75
	c0.78,0,1.48-0.69,1.5-1.47v-0.16c1.02,1.12,2.46,1.81,4.09,1.81h4.09v1.47c0,0.78,0.69,1.48,1.47,1.5h1.75c0.79,0,1.5-0.71,1.5-1.5
	l0.02-1.47c1.72,0,3.08-0.64,4.14-1.69v0.19c0,0.39,0.16,0.79,0.44,1.06c0.28,0.28,0.67,0.44,1.06,0.44h3.31
	c2.03,0,3.85-1.06,4.91-2.69c1.05,1.61,2.84,2.69,4.88,2.69c1.03,0,1.98-0.27,2.81-0.75c0.28,0.35,0.73,0.57,1.19,0.56h2.12
	c0.48,0.01,0.97-0.23,1.25-0.62l0.91-1.28l0.91,1.28c0.28,0.39,0.74,0.63,1.22,0.62h2.16C58.76,14.83,59.51,13.39,58.9,12.5z
	 M11.97,13.5h-1.75V3.59L6.75,9.53l-3.5-5.94v9.91H1.5v-12h1.4c0.7,0,1.26,0.16,1.57,0.69l2.28,3.9l2.28-3.9
	C9.34,1.66,9.89,1.5,10.59,1.5h1.38V13.5z M21.75,13.53h-4.19c-2.44,0-4.19-1.91-4.19-4.53s1.75-4.53,4.19-4.53S21.75,6.38,21.75,9
	V13.53z M26.46,13.53c-0.55,0-1.02,0-1.59,0v2.97h-1.75v-12h3.34c2.44,0,4.34,1.88,4.34,4.5S28.9,13.53,26.46,13.53z M35.34,13.53
	h-3.25V1.5h1.75v3c0.57,0,0.95,0.03,1.5,0.03c2.45,0,4.38,1.85,4.38,4.47S37.78,13.53,35.34,13.53z M45.12,13.53
	c-2.41,0-4.38-2.03-4.38-4.53s1.97-4.53,4.38-4.53c2.4,0,4.34,2.03,4.34,4.53S47.53,13.53,45.12,13.53z M55.53,13.5l-2.13-3.09
	l-2.16,3.09h-2.12l3.19-4.62L49.28,4.5h2.15l1.97,2.81l1.94-2.81h2.16l-3.03,4.38l3.21,4.62H55.53z"/>
<path opacity="0.25" d="M45.12,6.22c-1.44,0-2.62,1.24-2.62,2.78s1.18,2.78,2.62,2.78s2.59-1.24,2.59-2.78S46.56,6.22,45.12,6.22z
	 M45.12,10.28C44.54,10.28,44,9.78,44,9c0-0.78,0.54-1.28,1.12-1.28s1.09,0.5,1.09,1.28C46.21,9.78,45.7,10.28,45.12,10.28z"/>
<path fill="#FFFFFF" d="M17.56,4.47c-2.44,0-4.19,1.91-4.19,4.53s1.75,4.53,4.19,4.53h4.19V9C21.75,6.38,20,4.47,17.56,4.47z
	 M20,11.78h-2.44c-1.4,0-2.44-1.21-2.44-2.78s1.04-2.78,2.44-2.78S20,7.41,20,9V11.78z"/>
<path fill="#FFFFFF" d="M9.03,2.19l-2.28,3.9l-2.28-3.9C4.16,1.66,3.6,1.5,2.9,1.5H1.5v12h1.75V3.59l3.5,5.94l3.47-5.94v9.91h1.75
	v-12h-1.38C9.89,1.5,9.34,1.66,9.03,2.19z"/>
<path fill="#FFFFFF" d="M26.46,4.5h-3.34v12h1.75v-2.97c0.57,0,1.04,0,1.59,0c2.44,0,4.34-1.91,4.34-4.53S28.9,4.5,26.46,4.5z
	 M26.46,11.78h-1.59V6.25h1.59c1.59,0,2.59,1.28,2.59,2.75S27.92,11.78,26.46,11.78z"/>
<path fill="#FFFFFF" d="M45.12,4.47c-2.41,0-4.38,2.03-4.38,4.53s1.97,4.53,4.38,4.53S49.46,11.5,49.46,9S47.52,4.47,45.12,4.47z
	 M45.12,11.78c-1.44,0-2.62-1.24-2.62-2.78s1.18-2.78,2.62-2.78S47.71,7.46,47.71,9S46.56,11.78,45.12,11.78z"/>
<polygon fill="#FFFFFF" points="57.5,4.5 55.34,4.5 53.4,7.31 51.43,4.5 49.28,4.5 52.31,8.88 49.12,13.5 51.24,13.5 53.4,10.41
	55.53,13.5 57.68,13.5 54.47,8.88 "/>
<path fill="#FFFFFF" d="M35.34,4.53c-0.55,0-0.93-0.03-1.5-0.03v-3h-1.75v12.03h3.25c2.44,0,4.38-1.91,4.38-4.53
	S37.79,4.53,35.34,4.53z M35.34,11.78h-1.5V6.25h1.5c1.47,0,2.62,1.28,2.62,2.75S36.92,11.78,35.34,11.78z"/>
</svg>
